<?xml version="1.0" encoding="utf-8"?>
<!-- Generator: Adobe Illustrator 25.2.3, SVG Export Plug-In . SVG Version: 6.00 Build 0)  -->
<svg version="1.1" id="Layer_1" xmlns="http://www.w3.org/2000/svg" xmlns:xlink="http://www.w3.org/1999/xlink" x="0px" y="0px"
	 viewBox="0 0 124 32" style="enable-background:new 0 0 124 32;" xml:space="preserve">
<path d="M16.7,31.7H6.9c-4.5,0-6.9-3.4-6.9-8.5V8.8C0,3.6,1.1,0,7.6,0h2.5c4.6,0,6.6,3.6,6.6,8.8v2.9H9.2V7.1c0-0.4-0.3-0.8-0.7-0.8
	H8.4C8,6.3,7.6,6.7,7.6,7.1v17.4c0,0.5,0.4,0.8,0.8,0.8h8.2L16.7,31.7z M59.3,0.3v31.4h-7.5V17.5l-1.7,14.2H45l-1.9-14.2v14.2h-7.5
	l0-31.4h10l1.9,14.2l1.8-14.2H59.3z M78.3,0.3h7.6v24.9h5.2v6.5H78.3L78.3,0.3z M123.9,0.3l-4,15.2l4.1,16.2h-7.9l-1.4-8.1l-1.7,8.1
	h-6.8l4.1-15.2l-4-16.2h7.9l1.3,7.9l1.6-7.9H123.9z M25.1,7.2v17.6c0,0.5,0.4,0.9,0.9,0.9c0.5,0,0.9-0.4,0.9-0.9V7.2
	c0-0.5-0.4-0.9-0.9-0.9C25.5,6.3,25.1,6.7,25.1,7.2z M34.5,25.3c0,4.5-2.2,6.7-6.7,6.7h-3.6c-4.5,0-6.7-2.2-6.7-6.7V6.8
	c0-4.5,2.2-6.7,6.7-6.7h3.6c4.5,0,6.7,2.2,6.7,6.7V25.3z M68.2,6.4v7.5H69c0.4,0,0.8-0.4,0.8-0.9V7.2c0-0.5-0.4-0.9-0.8-0.9H68.2z
	 M68.2,19.5v12.2h-7.6V0.3h9.9c4.5,0,6.7,2.2,6.7,6.7v5.7c0,4.5-2.2,6.7-6.7,6.7H68.2z M92,0.2h13.5v6.5h-5.8v5.8h5.6V19h-5.6v6.2
	h5.9v6.5H92V0.2z"/>
</svg>
