<?xml version="1.0" encoding="utf-8"?>
<!-- Generator: Adobe Illustrator 25.2.3, SVG Export Plug-In . SVG Version: 6.00 Build 0)  -->
<svg version="1.1" id="Layer_1" xmlns="http://www.w3.org/2000/svg" xmlns:xlink="http://www.w3.org/1999/xlink" x="0px" y="0px"
	 viewBox="0 0 172 34" style="enable-background:new 0 0 172 34;" xml:space="preserve">
<style type="text/css">
	.st0{fill-rule:evenodd;clip-rule:evenodd;}
</style>
<path class="st0" d="M172,0H72.9v34H172V0z M79.5,6.2h4.7l9.1,14.4h0.1V6.2h4.5v21.5H93l-9-14.4h-0.1v14.4h-4.5V6.2z M118.2,6.2H102
	v21.5h16.5v-4h-11.7v-5.3h10.5v-3.7h-10.5v-4.6h11.5V6.2z M143,27.7h-4.7l-3.7-14.7h-0.1l-3.6,14.7H126l-5.7-21.5h4.8l3.4,14.7h0.1
	l3.8-14.7h4.5l3.7,14.8h0.1l3.6-14.8h4.7L143,27.7z M158.4,24.6c-2.6,0-4.8-1.1-4.8-4H149c-0.1,5.3,4.4,7.7,9.2,7.7c5.9,0,9-3,9-6.9
	c0-4.7-4.5-5.8-6.2-6.2c-0.1,0-0.1,0-0.2,0c-0.2,0-0.3-0.1-0.5-0.1c-5-1.3-6-1.5-6-3.1c0-1.8,1.8-2.4,3.3-2.4c2.3,0,4.1,0.7,4.3,3.3
	h4.6c0-5-4.2-6.9-8.7-6.9c-3.9,0-8.1,2.1-8.1,6.5c0,4,3.3,5.3,6.5,6.1c0.5,0.1,0.9,0.2,1.4,0.4c2.7,0.7,5,1.2,5,3.2
	C162.6,24.1,160.1,24.6,158.4,24.6z"/>
<path d="M7.6,5.9C3,5.9,0,8.4,0,12.3c0,3.2,2,5.1,6.1,6l6.9,1.6c1.2,0.3,2.3,0.7,2.3,2c0,0.6-0.3,1.5-2.3,1.5H2.3
	c-1.3,0-1.9,0.6-1.9,1.8v2.3C0.4,28,0.6,28,0.8,28h11.8c5.2,0,8.4-2.3,8.4-6.2c0-3.4-1.9-5.5-6.1-6.4L8,13.9c-1.4-0.3-2.3-0.8-2.3-2
	c0-0.6,0.3-1.5,2.3-1.5h10.3c1.3,0,1.9-0.6,1.9-1.8V6.3c0-0.4-0.2-0.5-0.4-0.5H7.6z"/>
<path d="M39.5,5.9c-0.8,0-1.2,0.2-1.7,0.7c0,0-7.3,7.8-8.7,9.3c0.3,0.5,7.9,11.4,7.9,11.4c0.4,0.6,0.6,0.7,1,0.7h4.8
	c0.4,0,0.4-0.1,0.4-0.2c0-0.1-0.1-0.2-0.3-0.5l0-0.1l-7.6-11.1l7.5-8l8.3,12.1l0,7.5c0,0.1,0,0.2,0.3,0.2h3.7c1.2,0,1.7-0.5,1.7-1.7
	v-5.9l9.4-13.9l0,0c0.1-0.2,0.2-0.6-0.3-0.6h-4.3c-0.5,0-0.6,0.1-0.9,0.6c0,0-5.9,8.7-6,8.8l-0.6,0.9l-6.4-9.5
	c-0.4-0.7-1.5-0.8-2.3-0.8H39.5z"/>
<path d="M25,5.9c-1.2,0-1.7,0.5-1.7,1.7v20.2c0,0.1,0,0.2,0.3,0.2h3.5c1.2,0,1.7-0.5,1.7-1.7V6.1c0-0.2,0-0.2-0.3-0.2H25z"/>
</svg>
