<?xml version="1.0" encoding="utf-8"?>
<!-- Generator: Adobe Illustrator 25.2.3, SVG Export Plug-In . SVG Version: 6.00 Build 0)  -->
<svg version="1.1" id="Layer_1" xmlns="http://www.w3.org/2000/svg" xmlns:xlink="http://www.w3.org/1999/xlink" x="0px" y="0px"
	 viewBox="0 0 162 32" style="enable-background:new 0 0 162 32;" xml:space="preserve">
<path d="M15.1,0.8L9,31.7l-2.1,0l-6.1-31H0V0h7.8v0.8H5.7l4.3,21.9l4.3-21.9h-2.5l0-0.8h4.8v0.8H15.1z"/>
<path d="M16.4,21.3l4.8,0L18.8,9L16.4,21.3z M12.2,31h1.4l6.1-31h2.1l6.1,31h0.7v0.8H21l0-0.8h2.1l-1.8-9h-5l-1.8,9H17l0,0.8h-4.8
	L12.2,31L12.2,31z"/>
<path d="M43.8,0.8v31.1h-1.5L31.8,2.3V31h2.1v0.8h-4.1V31h1.1V0.8h-2V0H36l6.8,18.8V0.8h-2.1V0h4.7v0.8H43.8z"/>
<path d="M47.1,31.7l0-0.8h1.4V0.8h-1.4V0h7.7v0.8h-1.5V31h1.5v0.8H47.1z"/>
<path d="M61.1,31.7V31h1.5V0.7h-0.1c-2.1,0-4.1,2.1-4.5,11.7h-0.7V0h15.6v12.4H72c-0.4-9.6-2.6-11.7-4.5-11.7h-0.1l0,30.3h1.5v0.8
	H61.1z"/>
<path d="M86.2,0.8V0h4.4v0.8h-1.2L85.3,17l0,13.9l1.5,0v0.8l-7.8,0V31l1.5,0V17.1L75.8,0.8h-1V0h8v0.8h-2.2l4.2,14.9l3.7-14.9H86.2z
	"/>
<path d="M104.8,31.7V31h1.3V0.8h-1.3V0h13.8l0,9.5h-0.7c-0.4-6.7-2.4-8.7-5.9-8.7h-1.1V15h0.4c2.7,0,3.5-1.1,3.7-5.5h0.7v12h-0.7
	c-0.3-4.8-1.1-5.8-3.5-5.8l-0.6,0V31h1.9v0.8H104.8z"/>
<path d="M121.6,21.3h4.8L124,9L121.6,21.3z M117.4,31h1.4l6.1-31h2.1l6.1,31h0.8v0.8h-7.7V31h2.1l-1.8-9h-5l-1.8,9l2.5,0v0.8l-4.8,0
	L117.4,31L117.4,31z"/>
<path d="M134.9,31.7V31h1.3V0.8h-1.3V0h7.5v0.8H141V31h1.3v0.8H134.9z"/>
<path d="M150.9,0.8l0,13.6h0.7c2.4,0,4.1,0.2,4.1-5.7l0-1.5c0-5.7-1.7-6.4-3.8-6.4L150.9,0.8L150.9,0.8z M155.4,27.7l0-7.8
	c0-4.1-1.2-4.9-3.7-4.9h-0.8V31h1.9v0.8h-8.1V31h1.3V0.8h-1.3V0h7.1c5.2,0,8.5,2.4,8.5,7.8c0,4.8-2.9,6.4-6.4,6.9v0
	c3.7,0.6,6.3,2.1,6.3,7.7v7.3c0,1,0.3,1.2,0.8,1.2c0.4,0,0.7-0.1,0.9-0.2v0.8c-0.3,0.2-1.1,0.5-2.2,0.5C157,32,155.4,31,155.4,27.7z
	"/>
</svg>
